<?xml version="1.0" encoding="utf-8"?>
<!-- Generator: Adobe Illustrator 28.3.0, SVG Export Plug-In . SVG Version: 6.00 Build 0)  -->
<svg version="1.1" xmlns="http://www.w3.org/2000/svg" xmlns:xlink="http://www.w3.org/1999/xlink" x="0px" y="0px"
	 viewBox="0 0 300 300" style="enable-background:new 0 0 300 300;" xml:space="preserve">
<style type="text/css">
	.st0{display:none;}
	.st1{display:inline;fill:#000B17;}
	.st2{display:inline;fill:#427FFF;}
	.st3{display:inline;}
	.st4{font-family:'Arial-BoldMT';}
	.st5{font-size:56px;}
	.st6{letter-spacing:-2;}
	.st7{display:inline;fill:#4241FF;}
	.st8{fill:#8400AD;}
	.st9{fill:#65007C;}
</style>
<g id="bg" class="st0">
	<rect x="-1" class="st1" width="301" height="300"/>
</g>
<g id="BlueFile" class="st0">
	<polygon class="st2" points="185,81 191,30 54,30 54,270 245,270 245,85.16 	"/>
	<text transform="matrix(1 0 0 1 90.5791 212.9556)" class="st3 st4 st5 st6">DOC</text>
	<path class="st7" d="M154.5,143h-77c-0.83,0-1.5-0.67-1.5-1.5l0,0c0-0.83,0.67-1.5,1.5-1.5h77c0.83,0,1.5,0.67,1.5,1.5l0,0
		C156,142.33,155.33,143,154.5,143z"/>
	<path class="st7" d="M222.5,124.88h-145c-0.83,0-1.5-0.67-1.5-1.5l0,0c0-0.83,0.67-1.5,1.5-1.5h145c0.83,0,1.5,0.67,1.5,1.5l0,0
		C224,124.21,223.33,124.88,222.5,124.88z"/>
	<path class="st7" d="M222.5,107.09h-145c-0.83,0-1.5-0.67-1.5-1.5l0,0c0-0.83,0.67-1.5,1.5-1.5h145c0.83,0,1.5,0.67,1.5,1.5l0,0
		C224,106.42,223.33,107.09,222.5,107.09z"/>
	<path class="st7" d="M222.5,89.3h-145c-0.83,0-1.5-0.67-1.5-1.5v0c0-0.83,0.67-1.5,1.5-1.5h145c0.83,0,1.5,0.67,1.5,1.5v0
		C224,88.63,223.33,89.3,222.5,89.3z"/>
	<path class="st7" d="M222.5,71.52h-145c-0.83,0-1.5-0.67-1.5-1.5l0,0c0-0.83,0.67-1.5,1.5-1.5h145c0.83,0,1.5,0.67,1.5,1.5l0,0
		C224,70.84,223.33,71.52,222.5,71.52z"/>
	<polygon class="st7" points="191,30 245,85 185,81 	"/>
</g>
<g id="Layer_3">
	<rect x="39" y="76" class="st8" width="221" height="152"/>
	<polygon class="st9" points="123,76 39,76 39,58 98,58 	"/>
	<path class="st9" d="M246.5,217h-193c-0.83,0-1.5,0.67-1.5,1.5l0,0c0,0.83,0.67,1.5,1.5,1.5h193c0.83,0,1.5-0.67,1.5-1.5l0,0
		C248,217.67,247.33,217,246.5,217z"/>
</g>
</svg>
